<svg width="37" height="34" viewBox="0 0 37 34" fill="none" xmlns="http://www.w3.org/2000/svg">
<rect width="37" height="34" rx="8" fill="#2F2F2F"/>
<path d="M7.256 25V8.2H14.6C16.424 8.2 18.024 8.552 19.4 9.256C20.776 9.96 21.848 10.936 22.616 12.184C23.384 13.432 23.768 14.904 23.768 16.6C23.768 18.28 23.384 19.752 22.616 21.016C21.848 22.264 20.776 23.24 19.4 23.944C18.024 24.648 16.424 25 14.6 25H7.256ZM10.376 22.36H14.456C15.72 22.36 16.808 22.12 17.72 21.64C18.648 21.16 19.36 20.488 19.856 19.624C20.368 18.76 20.624 17.752 20.624 16.6C20.624 15.432 20.368 14.424 19.856 13.576C19.36 12.712 18.648 12.04 17.72 11.56C16.808 11.08 15.72 10.84 14.456 10.84H10.376V22.36Z" fill="#E2E2E2"/>
<circle cx="28" cy="23" r="2" fill="#A33992"/>
</svg>
