<svg width="17" height="16" viewBox="0 0 17 16" fill="none" xmlns="http://www.w3.org/2000/svg">
<rect x="0.25" width="16" height="16" rx="2" fill="#0A0A0A"/>
<path d="M2.67188 9.71554C2.67188 9.71554 4.11402 8.61304 4.64463 8.35861C5.17523 8.10419 5.48815 7.9685 6.00514 7.47661C6.53575 6.96777 7.2024 5.93311 7.43369 5.71261C7.66498 5.50908 7.66498 5.57692 8.10034 5.39034C8.64455 5.15288 9.39283 3.72811 9.67854 4.13519C9.84181 4.38961 10.2772 5.95008 10.4676 5.30554C10.5493 5.03415 10.7261 4.59315 10.903 4.76277C11.0935 4.94934 11.0527 4.91542 11.2431 5.78046C11.4336 6.6455 11.5152 6.59461 11.7601 6.89992C12.0186 7.18827 11.8282 7.05258 12.1003 7.73104C12.386 8.4095 12.9438 9.17277 13.1479 9.57985C13.2839 9.88515 13.3928 10.1226 13.4336 10.2074C12.8349 9.96996 11.7057 9.56288 10.3996 9.2915C10.2772 9.00315 10.2636 8.52823 10.2364 8.35861C10.1275 7.68015 9.42005 7.88369 9.66494 7.32396C9.74657 7.10346 10.8758 5.81438 10.4949 5.88223C10.2636 5.93311 9.85541 6.03488 9.77378 6.08577C8.61734 6.69638 10.0459 4.661 8.87584 5.28858C8.767 5.35642 8.45408 5.28857 8.2636 5.543C8.08674 5.79742 7.84184 5.49211 7.62416 5.79742C7.40648 6.10273 7.54253 6.23842 7.1888 6.59461C6.84867 6.95081 6.86227 6.96777 6.56296 7.22219C6.27725 7.47661 6.23643 7.83281 5.97793 7.95154C5.73304 8.07027 5.25686 8.35861 5.0936 8.35861C4.91673 8.35861 4.23647 8.86746 4.15484 8.96923C4.08681 9.08796 2.67188 9.71554 2.67188 9.71554Z" fill="#4FD2A7"/>
<path d="M3.14806 10.1057C3.14806 10.1057 6.03235 9.13885 8.67176 9.37631C11.2976 9.61377 13.8281 10.7502 13.8281 10.7502L12.8486 11.0725C10.7261 10.0717 8.53571 9.76642 8.53571 9.76642C8.53571 9.76642 10.6309 10.5975 11.8418 11.4117L10.1955 11.9375C10.1955 11.9375 8.49489 10.6654 7.35206 10.2583C6.22283 9.85123 3.14806 10.1057 3.14806 10.1057Z" fill="#4FD2A7"/>
</svg>
